
        <svg xmlns="http://www.w3.org/2000/svg" xmlns:xlink="http://www.w3.org/1999/xlink" version="1.1" width="3171.4285714285716" 
        height="1328.5714285714284" viewBox="0 0 3171.4285714285716 1328.5714285714284">
			<rect fill="#1e1e1e" width="3171.4285714285716" height="1328.5714285714284"/>
			<g transform="scale(8.571428571428571) translate(10, 10)">
				<defs id="SvgjsDefs2290"><linearGradient id="SvgjsLinearGradient2299"><stop id="SvgjsStop2300" stop-color="#7f00ff" offset="0"></stop><stop id="SvgjsStop2301" stop-color="#e100ff" offset="1"></stop></linearGradient><linearGradient id="SvgjsLinearGradient2302"><stop id="SvgjsStop2303" stop-color="#7f00ff" offset="0"></stop><stop id="SvgjsStop2304" stop-color="#e100ff" offset="1"></stop></linearGradient><linearGradient id="SvgjsLinearGradient2305"><stop id="SvgjsStop2306" stop-color="#7f00ff" offset="0"></stop><stop id="SvgjsStop2307" stop-color="#e100ff" offset="1"></stop></linearGradient></defs><g id="SvgjsG2291" featureKey="symbolContainer" transform="matrix(1,0,0,1,20,20)" fill="url(#SvgjsLinearGradient2299)"><rect xmlns="http://www.w3.org/2000/svg" width="110" height="115" rx="10" ry="10"></rect></g><g id="SvgjsG2292" featureKey="monogramFeature-0" transform="matrix(1.789745689462628,0,0,1.789745689462628,32.13532054546919,7.596655111559677)" fill="#1e1e1e"><path d="M12.158 18.104999999999997 l0 41.895 l-7.7637 0 l0 -41.895 l7.7637 0 z M41.631 18.104999999999997 l-17.871 19.541 l19.746 22.354 l-10.752 0 l-16.201 -19.57 l0 -5.0391 l15.586 -17.285 l9.4922 0 z"></path></g><g id="SvgjsG2293" featureKey="nameFeature-0" transform="matrix(0.42055679239712174,0,0,0.42055679239712174,148.83926295618903,58.47482325622077)" fill="url(#SvgjsLinearGradient2302)"><path d="M9.04 11.440000000000001 l0 11.84 l11.16 -11.84 l7.84 0 l-11.16 11.28 l12.24 17.28 l-7.88 0 l-8.6 -12.84 l-3.6 3.64 l0 9.2 l-6.28 0 l0 -28.56 l6.28 0 z M37.8 11.440000000000001 l-0.000039062 17.88 c0 2.1067 0.47332 3.6467 1.42 4.62 s2.4334 1.46 4.46 1.46 c2.1867 0 3.72 -0.48668 4.6 -1.46 s1.32 -2.5133 1.32 -4.62 l0 -17.88 l6.28 0 l0 17.88 c0 3.5733 -1.02 6.36 -3.06 8.36 s-5.0868 3 -9.14 3 c-4.1332 0 -7.1932 -1 -9.18 -3 s-2.98 -4.7868 -2.98 -8.36 l0 -17.88 l6.28 0 z M81.36 11.440000000000001 l0 5.28 l-13.8 0 l0 6.6 l11.96 0 l0 4.88 l-11.96 0 l0 11.8 l-6.28 0 l0 -28.56 l20.08 0 z M97.8 10.760000000000002 c4.2132 0 7.6068 1.4 10.18 4.2 s3.86 6.4268 3.86 10.88 c0 4.3468 -1.2933 7.9068 -3.88 10.68 s-5.9732 4.16 -10.16 4.16 c-4.2132 0 -7.6068 -1.3867 -10.18 -4.16 s-3.86 -6.3332 -3.86 -10.68 c0 -4.4268 1.2933 -8.0468 3.88 -10.86 s5.9732 -4.22 10.16 -4.22 z M90.03999999999999 25.84 c0 2.88 0.67996 5.1932 2.04 6.94 s3.2667 2.62 5.72 2.62 c2.4 0 4.2932 -0.86 5.68 -2.58 s2.08 -4.0468 2.08 -6.98 c0 -3.0667 -0.68668 -5.4668 -2.06 -7.2 s-3.2866 -2.6 -5.74 -2.6 c-2.4 0 -4.2868 0.86668 -5.66 2.6 s-2.06 4.1332 -2.06 7.2 z M130.36 11.440000000000001 l10.68 28.56 l-6.52 0 l-2.16 -6.36 l-10.68 0 l-2.24 6.36 l-6.36 0 l10.84 -28.56 l6.44 0 z M127.03999999999999 18.48 l-3.72 10.48 l7.4 0 l-3.6 -10.48 l-0.08 0 z M149.79999999999998 11.440000000000001 l0 23.28 l13.92 0 l0 5.28 l-20.2 0 l0 -28.56 l6.28 0 z M180.04 10.760000000000002 c4.2132 0 7.6068 1.4 10.18 4.2 s3.86 6.4268 3.86 10.88 c0 4.3468 -1.2933 7.9068 -3.88 10.68 s-5.9732 4.16 -10.16 4.16 c-4.2132 0 -7.6068 -1.3867 -10.18 -4.16 s-3.86 -6.3332 -3.86 -10.68 c0 -4.4268 1.2933 -8.0468 3.88 -10.86 s5.9732 -4.22 10.16 -4.22 z M172.28 25.84 c0 2.88 0.67996 5.1932 2.04 6.94 s3.2667 2.62 5.72 2.62 c2.4 0 4.2932 -0.86 5.68 -2.58 s2.08 -4.0468 2.08 -6.98 c0 -3.0667 -0.68668 -5.4668 -2.06 -7.2 s-3.2866 -2.6 -5.74 -2.6 c-2.4 0 -4.2868 0.86668 -5.66 2.6 s-2.06 4.1332 -2.06 7.2 z M213.76 11.440000000000001 c2.4 0 4.3936 0.74 5.98 2.22 s2.38 3.3667 2.38 5.66 c0 3.5733 -1.5067 5.96 -4.52 7.16 l0 0.08 c1.0133 0.29332 1.8066 0.78 2.38 1.46 s1.0066 1.4733 1.3 2.38 s0.48 2.36 0.56 4.36 c0.10668 2.6133 0.48 4.36 1.12 5.24 l-6.28 0 c-0.34668 -0.88 -0.61336 -2.5333 -0.80004 -4.96 c-0.21332 -2.56 -0.68 -4.2332 -1.4 -5.02 s-1.8933 -1.18 -3.52 -1.18 l-6.32 0 l0 11.16 l-6.28 0 l0 -28.56 l15.4 0 z M211.56 24.36 c1.3333 0 2.38 -0.3 3.14 -0.9 s1.14 -1.66 1.14 -3.18 c0 -1.44 -0.37332 -2.46 -1.12 -3.06 s-1.8134 -0.9 -3.2 -0.9 l-6.88 0 l0 8.04 l6.92 0 z M244.64 11.440000000000001 l0 28.56 l-6.28 0 l0 -28.56 l6.28 0 z M256.4 11.440000000000001 l11.92 19.16 l0.08 0 l0 -19.16 l5.88 0 l0 28.56 l-6.28 0 l-11.88 -19.12 l-0.08 0 l0 19.12 l-5.88 0 l0 -28.56 l6.24 0 z M292.04 11.440000000000001 c4.0532 0 7.24 1.2533 9.56 3.76 s3.48 5.96 3.48 10.36 c0 4.56 -1.1667 8.1068 -3.5 10.64 s-5.46 3.8 -9.38 3.8 l-12.4 0 l0 -28.56 l12.24 0 z M291.64000000000004 34.72 c2.2667 0 4.0268 -0.74668 5.28 -2.24 s1.88 -3.6133 1.88 -6.36 c0 -3.1467 -0.67332 -5.5 -2.02 -7.06 s-3.42 -2.34 -6.22 -2.34 l-4.48 0 l0 18 l5.56 0 z M315.6 11.440000000000001 l-0.000039062 17.88 c0 2.1067 0.47332 3.6467 1.42 4.62 s2.4334 1.46 4.46 1.46 c2.1867 0 3.72 -0.48668 4.6 -1.46 s1.32 -2.5133 1.32 -4.62 l0 -17.88 l6.28 0 l0 17.88 c0 3.5733 -1.02 6.36 -3.06 8.36 s-5.0868 3 -9.14 3 c-4.1332 0 -7.1932 -1 -9.18 -3 s-2.98 -4.7868 -2.98 -8.36 l0 -17.88 l6.28 0 z M348.92 10.760000000000002 c3.4933 0 6.2732 0.80004 8.34 2.4 s3.1 3.8667 3.1 6.8 l-6.08 0 c-0.08 -1.44 -0.56668 -2.52 -1.46 -3.24 s-2.2733 -1.08 -4.14 -1.08 c-1.3067 0 -2.36 0.28668 -3.16 0.86 s-1.2 1.3666 -1.2 2.38 c0 0.82668 0.24668 1.4267 0.74 1.8 s1.1933 0.70664 2.1 0.99996 s2.4934 0.72 4.76 1.28 c2.3733 0.58668 4.2 1.2267 5.48 1.92 s2.2533 1.58 2.92 2.66 s1 2.4067 1 3.98 c0 1.8133 -0.48 3.4266 -1.44 4.84 s-2.36 2.4866 -4.2 3.22 s-3.92 1.1 -6.24 1.1 c-3.5467 0 -6.46 -0.88668 -8.74 -2.66 s-3.42 -4.2068 -3.42 -7.3 l0 -0.2 l6.08 0 c0 1.68 0.57332 2.98 1.72 3.9 s2.6667 1.38 4.56 1.38 c1.68 0 3.0333 -0.3 4.06 -0.9 s1.54 -1.4867 1.54 -2.66 c0 -0.77332 -0.28 -1.4266 -0.84 -1.96 s-1.3067 -0.96664 -2.24 -1.3 s-2.5066 -0.75332 -4.72 -1.26 c-2.56 -0.64 -4.4268 -1.32 -5.6 -2.04 s-2.0666 -1.5933 -2.68 -2.62 s-0.92 -2.26 -0.92 -3.7 c0 -1.7867 0.51332 -3.3467 1.54 -4.68 s2.3667 -2.32 4.02 -2.96 s3.36 -0.96 5.12 -0.96 z M386.2 11.440000000000001 l0 5.28 l-8.56 0 l0 23.28 l-6.28 0 l0 -23.28 l-8.56 0 l0 -5.28 l23.4 0 z M404.88 11.440000000000001 c2.4 0 4.3936 0.74 5.98 2.22 s2.38 3.3667 2.38 5.66 c0 3.5733 -1.5067 5.96 -4.52 7.16 l0 0.08 c1.0133 0.29332 1.8066 0.78 2.38 1.46 s1.0066 1.4733 1.3 2.38 s0.48 2.36 0.56 4.36 c0.10668 2.6133 0.48 4.36 1.12 5.24 l-6.28 0 c-0.34668 -0.88 -0.61336 -2.5333 -0.80004 -4.96 c-0.21332 -2.56 -0.68 -4.2332 -1.4 -5.02 s-1.8933 -1.18 -3.52 -1.18 l-6.32 0 l0 11.16 l-6.28 0 l0 -28.56 l15.4 0 z M402.67999999999995 24.36 c1.3333 0 2.38 -0.3 3.14 -0.9 s1.14 -1.66 1.14 -3.18 c0 -1.44 -0.37332 -2.46 -1.12 -3.06 s-1.8134 -0.9 -3.2 -0.9 l-6.88 0 l0 8.04 l6.92 0 z M424.64 11.440000000000001 l0 28.56 l-6.28 0 l0 -28.56 l6.28 0 z M451.52 11.440000000000001 l0 5.28 l-15.08 0 l0 6.12 l13.84 0 l0 4.88 l-13.84 0 l0 7 l15.4 0 l0 5.28 l-21.68 0 l0 -28.56 l21.36 0 z M465.92 10.760000000000002 c3.4933 0 6.2732 0.80004 8.34 2.4 s3.1 3.8667 3.1 6.8 l-6.08 0 c-0.08 -1.44 -0.56668 -2.52 -1.46 -3.24 s-2.2733 -1.08 -4.14 -1.08 c-1.3067 0 -2.36 0.28668 -3.16 0.86 s-1.2 1.3666 -1.2 2.38 c0 0.82668 0.24668 1.4267 0.74 1.8 s1.1933 0.70664 2.1 0.99996 s2.4934 0.72 4.76 1.28 c2.3733 0.58668 4.2 1.2267 5.48 1.92 s2.2533 1.58 2.92 2.66 s1 2.4067 1 3.98 c0 1.8133 -0.48 3.4266 -1.44 4.84 s-2.36 2.4866 -4.2 3.22 s-3.92 1.1 -6.24 1.1 c-3.5467 0 -6.46 -0.88668 -8.74 -2.66 s-3.42 -4.2068 -3.42 -7.3 l0 -0.2 l6.08 0 c0 1.68 0.57332 2.98 1.72 3.9 s2.6667 1.38 4.56 1.38 c1.68 0 3.0333 -0.3 4.06 -0.9 s1.54 -1.4867 1.54 -2.66 c0 -0.77332 -0.28 -1.4266 -0.84 -1.96 s-1.3067 -0.96664 -2.24 -1.3 s-2.5066 -0.75332 -4.72 -1.26 c-2.56 -0.64 -4.4268 -1.32 -5.6 -2.04 s-2.0666 -1.5933 -2.68 -2.62 s-0.92 -2.26 -0.92 -3.7 c0 -1.7867 0.51332 -3.3467 1.54 -4.68 s2.3667 -2.32 4.02 -2.96 s3.36 -0.96 5.12 -0.96 z"></path></g><g id="SvgjsG2294" featureKey="sloganFeature-0" transform="matrix(0.4103195658824503,0,0,0.4103195658824503,149.89331701461148,83.79248068859508)" fill="url(#SvgjsLinearGradient2305)"><path d="M11.96 5.720000000000001 l0 2.64 l-4.28 0 l0 11.64 l-3.14 0 l0 -11.64 l-4.28 0 l0 -2.64 l11.7 0 z M20 5.380000000000001 c2.1066 0 3.8034 0.7 5.09 2.1 s1.93 3.2134 1.93 5.44 c0 2.1734 -0.64666 3.9534 -1.94 5.34 s-2.9866 2.08 -5.08 2.08 c-2.1066 0 -3.8034 -0.69334 -5.09 -2.08 s-1.93 -3.1666 -1.93 -5.34 c0 -2.2134 0.64666 -4.0234 1.94 -5.43 s2.9866 -2.11 5.08 -2.11 z M16.12 12.92 c0 1.44 0.33998 2.5966 1.02 3.47 s1.6333 1.31 2.86 1.31 c1.2 0 2.1466 -0.43 2.84 -1.29 s1.04 -2.0234 1.04 -3.49 c0 -1.5333 -0.34334 -2.7334 -1.03 -3.6 s-1.6433 -1.3 -2.87 -1.3 c-1.2 0 -2.1434 0.43334 -2.83 1.3 s-1.03 2.0666 -1.03 3.6 z M32.24 5.720000000000001 l-0.000019531 8.94 c0 1.0533 0.23666 1.8233 0.71 2.31 s1.2167 0.73 2.23 0.73 c1.0933 0 1.86 -0.24334 2.3 -0.73 s0.66 -1.2567 0.66 -2.31 l0 -8.94 l3.14 0 l0 8.94 c0 1.7867 -0.51 3.18 -1.53 4.18 s-2.5434 1.5 -4.57 1.5 c-2.0666 0 -3.5966 -0.5 -4.59 -1.5 s-1.49 -2.3934 -1.49 -4.18 l0 -8.94 l3.14 0 z M50.38 5.380000000000001 c1.6667 0 3.0666 0.47 4.2 1.41 s1.7867 2.1834 1.96 3.73 l-3.04 0 c-0.10666 -0.70666 -0.46 -1.3 -1.06 -1.78 s-1.2867 -0.72 -2.06 -0.72 c-1.2267 0 -2.18 0.44 -2.86 1.32 s-1.02 2.0734 -1.02 3.58 c0 1.4667 0.34334 2.63 1.03 3.49 s1.6367 1.29 2.85 1.29 c0.90666 0 1.64 -0.27666 2.2 -0.83 s0.90666 -1.3433 1.04 -2.37 l3.04 0 c-0.16 1.8133 -0.81 3.24 -1.95 4.28 s-2.5834 1.56 -4.33 1.56 c-2.0934 0 -3.7866 -0.69 -5.08 -2.07 s-1.94 -3.1634 -1.94 -5.35 c0 -2.2134 0.64 -4.0234 1.92 -5.43 s2.98 -2.11 5.1 -2.11 z M61.94 5.720000000000001 l0 5.48 l5.78 0 l0 -5.48 l3.14 0 l0 14.28 l-3.14 0 l0 -6.16 l-5.78 0 l0 6.16 l-3.14 0 l0 -14.28 l3.14 0 z M76.76 5.720000000000001 l0 14.28 l-3.14 0 l0 -14.28 l3.14 0 z M82.64000000000001 5.720000000000001 l5.96 9.58 l0.04 0 l0 -9.58 l2.94 0 l0 14.28 l-3.14 0 l-5.94 -9.56 l-0.04 0 l0 9.56 l-2.94 0 l0 -14.28 l3.12 0 z M100.74000000000001 5.380000000000001 c1.6267 0 3.0066 0.47336 4.14 1.42 s1.76 2.1534 1.88 3.62 l-3 0 c-0.18666 -0.8 -0.54666 -1.4 -1.08 -1.8 s-1.18 -0.6 -1.94 -0.6 c-1.2267 0 -2.18 0.44334 -2.86 1.33 s-1.02 2.0766 -1.02 3.57 c0 1.4667 0.34666 2.63 1.04 3.49 s1.64 1.29 2.84 1.29 c2.0534 0 3.1866 -1.0267 3.4 -3.08 l-3.16 0 l0 -2.34 l6 0 l0 7.72 l-2 0 l-0.32 -1.62 c-1 1.3067 -2.3066 1.96 -3.92 1.96 c-2.1066 0 -3.8034 -0.69334 -5.09 -2.08 s-1.93 -3.1666 -1.93 -5.34 c0 -2.2134 0.64 -4.0234 1.92 -5.43 s2.98 -2.11 5.1 -2.11 z M125.66000000000003 5.720000000000001 l0 2.64 l-4.28 0 l0 11.64 l-3.14 0 l0 -11.64 l-4.28 0 l0 -2.64 l11.7 0 z M130.44000000000003 5.720000000000001 l0 5.48 l5.78 0 l0 -5.48 l3.14 0 l0 14.28 l-3.14 0 l0 -6.16 l-5.78 0 l0 6.16 l-3.14 0 l0 -14.28 l3.14 0 z M152.8 5.720000000000001 l0 2.64 l-7.54 0 l0 3.06 l6.92 0 l0 2.44 l-6.92 0 l0 3.5 l7.7 0 l0 2.64 l-10.84 0 l0 -14.28 l10.68 0 z M162.46 5.720000000000001 l2.26 9.72 l0.04 0 l2.48 -9.72 l2.94 0 l2.44 9.84 l0.04 0 l2.34 -9.84 l3.08 0 l-3.84 14.28 l-3.12 0 l-2.42 -9.72 l-0.04 0 l-2.38 9.72 l-3.18 0 l-3.78 -14.28 l3.14 0 z M185.92000000000002 5.380000000000001 c2.1066 0 3.8034 0.7 5.09 2.1 s1.93 3.2134 1.93 5.44 c0 2.1734 -0.64666 3.9534 -1.94 5.34 s-2.9866 2.08 -5.08 2.08 c-2.1066 0 -3.8034 -0.69334 -5.09 -2.08 s-1.93 -3.1666 -1.93 -5.34 c0 -2.2134 0.64666 -4.0234 1.94 -5.43 s2.9866 -2.11 5.08 -2.11 z M182.04000000000002 12.92 c0 1.44 0.33998 2.5966 1.02 3.47 s1.6333 1.31 2.86 1.31 c1.2 0 2.1466 -0.43 2.84 -1.29 s1.04 -2.0234 1.04 -3.49 c0 -1.5333 -0.34334 -2.7334 -1.03 -3.6 s-1.6433 -1.3 -2.87 -1.3 c-1.2 0 -2.1434 0.43334 -2.83 1.3 s-1.03 2.0666 -1.03 3.6 z M202.78000000000003 5.720000000000001 c1.2 0 2.1968 0.37 2.99 1.11 s1.19 1.6833 1.19 2.83 c0 1.7867 -0.75334 2.98 -2.26 3.58 l0 0.04 c0.50666 0.14666 0.90332 0.39 1.19 0.73 s0.50332 0.73666 0.64998 1.19 s0.24 1.18 0.28 2.18 c0.05334 1.3067 0.24 2.18 0.56 2.62 l-3.14 0 c-0.17334 -0.44 -0.30668 -1.2667 -0.40002 -2.48 c-0.10666 -1.28 -0.34 -2.1166 -0.7 -2.51 s-0.94666 -0.59 -1.76 -0.59 l-3.16 0 l0 5.58 l-3.14 0 l0 -14.28 l7.7 0 z M201.68 12.18 c0.66666 0 1.19 -0.15 1.57 -0.45 s0.57 -0.83 0.57 -1.59 c0 -0.72 -0.18666 -1.23 -0.56 -1.53 s-0.90668 -0.45 -1.6 -0.45 l-3.44 0 l0 4.02 l3.46 0 z M212.66000000000003 5.720000000000001 l0 11.64 l6.96 0 l0 2.64 l-10.1 0 l0 -14.28 l3.14 0 z M227.5 5.720000000000001 c2.0266 0 3.62 0.62666 4.78 1.88 s1.74 2.98 1.74 5.18 c0 2.28 -0.58334 4.0534 -1.75 5.32 s-2.73 1.9 -4.69 1.9 l-6.2 0 l0 -14.28 l6.12 0 z M227.3 17.36 c1.1333 0 2.0134 -0.37334 2.64 -1.12 s0.94 -1.8067 0.94 -3.18 c0 -1.5733 -0.33666 -2.75 -1.01 -3.53 s-1.71 -1.17 -3.11 -1.17 l-2.24 0 l0 9 l2.78 0 z M252.34 5.720000000000001 l0 2.64 l-4.28 0 l0 11.64 l-3.14 0 l0 -11.64 l-4.28 0 l0 -2.64 l11.7 0 z M257.12 5.720000000000001 l0 5.48 l5.78 0 l0 -5.48 l3.14 0 l0 14.28 l-3.14 0 l0 -6.16 l-5.78 0 l0 6.16 l-3.14 0 l0 -14.28 l3.14 0 z M276.5 5.720000000000001 c1.2 0 2.1968 0.37 2.99 1.11 s1.19 1.6833 1.19 2.83 c0 1.7867 -0.75334 2.98 -2.26 3.58 l0 0.04 c0.50666 0.14666 0.90332 0.39 1.19 0.73 s0.50332 0.73666 0.64998 1.19 s0.24 1.18 0.28 2.18 c0.05334 1.3067 0.24 2.18 0.56 2.62 l-3.14 0 c-0.17334 -0.44 -0.30668 -1.2667 -0.40002 -2.48 c-0.10666 -1.28 -0.34 -2.1166 -0.7 -2.51 s-0.94666 -0.59 -1.76 -0.59 l-3.16 0 l0 5.58 l-3.14 0 l0 -14.28 l7.7 0 z M275.40000000000003 12.18 c0.66666 0 1.19 -0.15 1.57 -0.45 s0.57 -0.83 0.57 -1.59 c0 -0.72 -0.18666 -1.23 -0.56 -1.53 s-0.90668 -0.45 -1.6 -0.45 l-3.44 0 l0 4.02 l3.46 0 z M289.64 5.380000000000001 c2.1066 0 3.8034 0.7 5.09 2.1 s1.93 3.2134 1.93 5.44 c0 2.1734 -0.64666 3.9534 -1.94 5.34 s-2.9866 2.08 -5.08 2.08 c-2.1066 0 -3.8034 -0.69334 -5.09 -2.08 s-1.93 -3.1666 -1.93 -5.34 c0 -2.2134 0.64666 -4.0234 1.94 -5.43 s2.9866 -2.11 5.08 -2.11 z M285.76 12.92 c0 1.44 0.33998 2.5966 1.02 3.47 s1.6333 1.31 2.86 1.31 c1.2 0 2.1466 -0.43 2.84 -1.29 s1.04 -2.0234 1.04 -3.49 c0 -1.5333 -0.34334 -2.7334 -1.03 -3.6 s-1.6433 -1.3 -2.87 -1.3 c-1.2 0 -2.1434 0.43334 -2.83 1.3 s-1.03 2.0666 -1.03 3.6 z M301.88 5.720000000000001 l-0.000019531 8.94 c0 1.0533 0.23666 1.8233 0.71 2.31 s1.2167 0.73 2.23 0.73 c1.0933 0 1.86 -0.24334 2.3 -0.73 s0.66 -1.2567 0.66 -2.31 l0 -8.94 l3.14 0 l0 8.94 c0 1.7867 -0.51 3.18 -1.53 4.18 s-2.5434 1.5 -4.57 1.5 c-2.0666 0 -3.5966 -0.5 -4.59 -1.5 s-1.49 -2.3934 -1.49 -4.18 l0 -8.94 l3.14 0 z M320.02 5.380000000000001 c1.6267 0 3.0066 0.47336 4.14 1.42 s1.76 2.1534 1.88 3.62 l-3 0 c-0.18666 -0.8 -0.54666 -1.4 -1.08 -1.8 s-1.18 -0.6 -1.94 -0.6 c-1.2267 0 -2.18 0.44334 -2.86 1.33 s-1.02 2.0766 -1.02 3.57 c0 1.4667 0.34666 2.63 1.04 3.49 s1.64 1.29 2.84 1.29 c2.0534 0 3.1866 -1.0267 3.4 -3.08 l-3.16 0 l0 -2.34 l6 0 l0 7.72 l-2 0 l-0.32 -1.62 c-1 1.3067 -2.3066 1.96 -3.92 1.96 c-2.1066 0 -3.8034 -0.69334 -5.09 -2.08 s-1.93 -3.1666 -1.93 -5.34 c0 -2.2134 0.64 -4.0234 1.92 -5.43 s2.98 -2.11 5.1 -2.11 z M331.94 5.720000000000001 l0 5.48 l5.78 0 l0 -5.48 l3.14 0 l0 14.28 l-3.14 0 l0 -6.16 l-5.78 0 l0 6.16 l-3.14 0 l0 -14.28 l3.14 0 z M351.16 5.720000000000001 l3.34 5.64 l3.32 -5.64 l3.5 0 l-5.3 8.8 l0 5.48 l-3.14 0 l0 -5.56 l-5.26 -8.72 l3.54 0 z M368.91999999999996 5.380000000000001 c2.1066 0 3.8034 0.7 5.09 2.1 s1.93 3.2134 1.93 5.44 c0 2.1734 -0.64666 3.9534 -1.94 5.34 s-2.9866 2.08 -5.08 2.08 c-2.1066 0 -3.8034 -0.69334 -5.09 -2.08 s-1.93 -3.1666 -1.93 -5.34 c0 -2.2134 0.64666 -4.0234 1.94 -5.43 s2.9866 -2.11 5.08 -2.11 z M365.03999999999996 12.92 c0 1.44 0.33998 2.5966 1.02 3.47 s1.6333 1.31 2.86 1.31 c1.2 0 2.1466 -0.43 2.84 -1.29 s1.04 -2.0234 1.04 -3.49 c0 -1.5333 -0.34334 -2.7334 -1.03 -3.6 s-1.6433 -1.3 -2.87 -1.3 c-1.2 0 -2.1434 0.43334 -2.83 1.3 s-1.03 2.0666 -1.03 3.6 z M381.15999999999997 5.720000000000001 l-0.000019531 8.94 c0 1.0533 0.23666 1.8233 0.71 2.31 s1.2167 0.73 2.23 0.73 c1.0933 0 1.86 -0.24334 2.3 -0.73 s0.66 -1.2567 0.66 -2.31 l0 -8.94 l3.14 0 l0 8.94 c0 1.7867 -0.51 3.18 -1.53 4.18 s-2.5434 1.5 -4.57 1.5 c-2.0666 0 -3.5966 -0.5 -4.59 -1.5 s-1.49 -2.3934 -1.49 -4.18 l0 -8.94 l3.14 0 z"></path></g>
			</g>
		</svg>
	